<?xml version="1.0" encoding="utf-8"?>
<!-- Generator: Adobe Illustrator 25.3.0, SVG Export Plug-In . SVG Version: 6.00 Build 0)  -->
<svg version="1.1" id="Layer_1" xmlns="http://www.w3.org/2000/svg" xmlns:xlink="http://www.w3.org/1999/xlink" x="0px" y="0px"
	 viewBox="0 0 123.38 15.19" style="enable-background:new 0 0 123.38 15.19;" xml:space="preserve">
<style type="text/css">
	.st0{fill:#038EA7;}
	.st1{fill:none;}
	.st2{fill:#4D4D4D;}
</style>
<g>
	<path class="st0" d="M50.55,12.71c0.86,0.88,2.29,1.41,3.93,1.41c2.37,0,3.93-1.1,3.93-2.93c0-4.23-8.33-2.37-8.33-7.1
		c0-2.17,1.71-3.47,4.35-3.47c1.81,0,3.39,0.6,4.23,1.64L58.13,2.8C57.41,1.94,56,1.4,54.42,1.4c-2.17,0-3.57,0.98-3.57,2.65
		c0,3.97,8.33,2.17,8.33,7.08c0,2.33-1.87,3.77-4.73,3.77c-1.85,0-3.47-0.6-4.45-1.64L50.55,12.71z"/>
	<path class="st0" d="M60.78,7.76c0-4.13,2.85-7.14,6.76-7.14c2.03,0,3.75,0.8,4.98,2.17l-0.62,0.5C70.83,2.1,69.31,1.4,67.54,1.4
		c-3.45,0-5.98,2.67-5.98,6.36c0,3.69,2.53,6.36,5.98,6.36c1.77,0,3.29-0.7,4.35-1.89l0.6,0.5c-1.2,1.34-2.95,2.17-4.96,2.17
		C63.63,14.9,60.78,11.89,60.78,7.76z"/>
	<path class="st0" d="M75.1,0.74h5.86c2.39,0,4.13,1.65,4.13,3.89c0,2.05-1.42,3.59-3.49,3.85l3.97,6.3h-0.88l-3.95-6.26H75.9v6.26
		h-0.8V0.74z M75.9,1.48v6.3h5.06c1.93,0,3.33-1.34,3.33-3.15c0-1.83-1.4-3.15-3.33-3.15H75.9z"/>
	<path class="st0" d="M88.99,0.74h0.8v14.04h-0.8V0.74z"/>
	<path class="st0" d="M94.28,0.74h5.86c2.39,0,4.13,1.73,4.13,4.09c0,2.37-1.75,4.09-4.13,4.09h-5.06v5.86h-0.8V0.74z M95.09,1.48
		v6.7h5.06c1.93,0,3.33-1.42,3.33-3.35c0-1.95-1.41-3.35-3.33-3.35H95.09z"/>
	<path class="st0" d="M104.67,0.74h11.96v0.74h-5.58v13.3h-0.8V1.48h-5.58V0.74z"/>
	<path class="st0" d="M17.09,2.94l1.76,4.23c0.69-0.04,1.4-0.06,2.11-0.07l-2.87-6.81h-0.41l-3.09,7.39
		c0.19-0.03,0.39-0.06,0.59-0.1L17.09,2.94z"/>
	<path class="st0" d="M29.94,4.05c0-1.19,0.04-1.94,0.11-2.25c0.07-0.32,0.22-0.53,0.44-0.65c0.22-0.12,0.68-0.17,1.38-0.17h0.31
		V0.49h-6.52v0.48h0.31c0.72,0,1.19,0.06,1.41,0.19c0.22,0.13,0.36,0.35,0.42,0.68s0.09,1.06,0.09,2.2V7.7
		c0.7,0.13,1.39,0.27,2.06,0.44V4.05z"/>
	<path class="st1" d="M8.55,4.86c0-0.74-0.19-1.27-0.57-1.59C7.6,2.96,7.07,2.8,6.39,2.8H3.7V7h2.69C7.07,7,7.6,6.83,7.98,6.49
		C8.36,6.15,8.55,5.61,8.55,4.86z"/>
	<path class="st2" d="M10.26,8.42c0.84-0.7,1.25-1.89,1.25-3.58c0-1.54-0.42-2.68-1.26-3.42c-0.84-0.74-1.97-1.1-3.38-1.1H0.74V14.6
		H3.7V9.47h2.97C8.23,9.47,9.42,9.12,10.26,8.42z M3.7,7V2.8h2.69c0.68,0,1.21,0.16,1.59,0.47c0.38,0.32,0.57,0.85,0.57,1.59
		c0,0.74-0.19,1.29-0.57,1.63C7.6,6.83,7.07,7,6.39,7H3.7z"/>
	<path class="st2" d="M44.36,0.32v9.96L38.7,0.32h-3.13v10.24c0.99,0.46,1.91,0.98,2.75,1.53c-0.87-0.42-1.79-0.81-2.75-1.16v3.68
		h2.78V4.47l5.82,10.13h2.98V0.32H44.36z"/>
	<path class="st2" d="M29.94,8.6c-0.67-0.16-1.36-0.31-2.06-0.44c-2.12-0.38-4.36-0.6-6.69-0.6c-0.08,0-0.15,0.01-0.23,0.01
		c-0.71,0-1.41,0.03-2.11,0.07c-1.26,0.08-2.48,0.22-3.68,0.42c-0.2,0.03-0.39,0.06-0.59,0.1c-4.11,0.73-7.74,2.1-10.53,3.95
		c2.89-1.4,6.27-2.44,9.96-3.04l-0.48,1.14c-0.3,0.71-0.47,1.12-0.5,1.22c-0.44,1.12-0.81,1.85-1.12,2.19
		c-0.31,0.35-0.78,0.57-1.41,0.67v0.48h4.24v-0.48c-0.46,0-0.83-0.11-1.12-0.33c-0.29-0.22-0.44-0.55-0.44-0.97
		c0-0.4,0.27-1.25,0.82-2.57l0.37-0.91l0.2-0.47l0.03-0.06c0.07-0.01,0.13-0.02,0.2-0.03c1.43-0.2,2.9-0.35,4.41-0.41
		c0.06,0,0.13,0,0.19,0l0.21,0.5L19.8,9.5l1.09,2.64c0.32,0.76,0.48,1.22,0.48,1.38c0,0.3-0.12,0.5-0.36,0.6
		c-0.24,0.1-0.71,0.15-1.39,0.15v0.48h5.61v-0.48c-0.5-0.05-0.87-0.17-1.12-0.36c-0.25-0.19-0.45-0.46-0.59-0.79l-0.65-1.49
		l-1.32-3.14c2.18,0.02,4.31,0.18,6.34,0.49v2.07c0,1.19-0.03,1.95-0.09,2.28c-0.06,0.33-0.21,0.57-0.45,0.72s-0.66,0.23-1.27,0.23
		h-0.42v0.48h6.52v-0.48h-0.42c-0.65,0-1.08-0.08-1.31-0.25c-0.23-0.17-0.37-0.43-0.42-0.77c-0.05-0.35-0.08-1.08-0.08-2.2v-1.7
		c1.99,0.4,3.87,0.94,5.63,1.58v-0.37C33.87,9.75,31.97,9.09,29.94,8.6z"/>
	<path class="st2" d="M35.57,10.56v0.37c0.96,0.35,1.88,0.74,2.75,1.16C37.47,11.53,36.55,11.02,35.57,10.56z"/>
	<g>
		<g>
			<path class="st0" d="M120.03,0.76v0.29h-0.81v2.13h-0.33V1.05h-0.81V0.76H120.03z"/>
			<path class="st0" d="M120.32,0.76h0.47l0.69,2.04l0.69-2.04h0.47v2.42h-0.31V1.75c0-0.05,0-0.13,0-0.25s0-0.24,0-0.37l-0.69,2.04
				h-0.32l-0.7-2.04v0.07c0,0.06,0,0.15,0,0.27c0,0.12,0,0.21,0,0.27v1.43h-0.31V0.76z"/>
		</g>
	</g>
</g>
</svg>
